<svg version="1.0" xmlns="http://www.w3.org/2000/svg" width="48" height="48" viewBox="0 0 800 800" preserveAspectRatio="xMidYMid meet">
  <g transform="translate(0,800) scale(0.1,-0.1)" fill="#000000" stroke="none">
    <path d="M3420 6748 c-39 -20 -57 -42 -137 -168 -172 -269 -223 -391 -230 -560 -9 -189 31 -294 173 -456 46 -52 95 -120 111 -152 28 -57 28 -57 28 -262 0 -193 1 -207 22 -240 29 -47 71 -70 128 -70 59 0 103 26 132 78 19 33 23 60 29 208 11 286 -29 410 -204 628 -108 135 -115 152 -110 254 4 74 10 99 41 165 20 44 57 107 82 142 70 98 120 176 144 222 75 148 -61 285 -209 211z"/>
    <path d="M4500 6493 c-49 -19 -80 -58 -169 -216 -85 -149 -115 -213 -144 -302 -51 -158 -64 -278 -42 -397 25 -142 72 -231 208 -393 141 -168 159 -230 129 -460 -21 -153 -17 -193 20 -232 38 -41 76 -56 130 -51 100 10 130 56 152 228 42 334 5 476 -186 705 -136 163 -168 249 -147 387 15 100 55 195 140 335 93 152 119 209 119 258 0 81 -68 146 -150 144 -25 0 -52 -3 -60 -6z"/>
    <path d="M6829 4287 c-87 -36 -207 -103 -294 -165 -106 -76 -317 -286 -395 -395 -42 -59 -66 -84 -74 -78 -22 18 -205 120 -302 169 -409 205 -847 342 -1274 399 -194 26 -635 25 -810 -1 -312 -46 -745 -150 -1048 -252 -555 -186 -1091 -529 -1414 -904 -93 -108 -108 -136 -108 -196 0 -49 4 -57 58 -126 203 -254 671 -497 1142 -593 264 -54 511 -74 995 -82 516 -8 901 14 1255 73 541 90 948 237 1250 453 98 70 268 227 325 299 22 28 45 51 50 51 6 1 60 -29 120 -65 214 -127 382 -194 553 -219 127 -19 171 -7 211 59 18 30 18 59 16 696 -2 555 -5 678 -18 742 -19 94 -29 113 -70 138 -42 26 -99 25 -168 -3z m-2419 -362 c528 -68 1028 -247 1551 -558 l136 -81 -87 -101 c-201 -232 -379 -371 -635 -495 -332 -162 -701 -253 -1200 -296 -176 -15 -985 -33 -985 -22 0 3 7 20 17 38 15 31 15 47 -1 229 -46 518 -123 786 -292 1010 -42 56 -52 76 -42 82 7 5 49 20 93 33 281 86 615 154 859 176 128 12 438 4 586 -15z m2368 -245 c-5 -135 -6 -346 -2 -468 l6 -224 -23 7 c-118 36 -261 108 -436 221 -98 62 -111 73 -97 85 9 7 31 43 49 79 76 150 270 371 435 494 40 30 75 54 76 53 1 -1 -3 -112 -8 -247z m-4150 -150 c75 -94 112 -160 153 -272 63 -172 101 -375 119 -643 6 -88 15 -176 20 -194 5 -19 8 -36 7 -38 -4 -4 -239 15 -342 28 -344 42 -734 173 -959 323 -45 30 -102 72 -126 95 l-45 40 130 129 c144 142 297 261 480 371 142 86 452 241 480 240 13 0 43 -29 83 -79z"/>
    <path d="M1979 3223 c-79 -41 -114 -101 -114 -199 0 -64 3 -77 30 -115 19 -27 51 -54 85 -72 48 -25 64 -28 121 -25 53 3 75 9 108 33 53 36 90 98 98 163 7 64 -10 114 -56 165 -73 81 -174 99 -272 50z"/>
    <path d="M5670 1879 c-37 -15 -60 -39 -86 -92 -32 -61 -88 -124 -133 -147 -95 -48 -312 -98 -546 -126 -185 -23 -632 -27 -1410 -15 -636 10 -720 13 -803 30 -124 26 -248 88 -385 192 -93 71 -114 83 -155 86 -112 10 -196 -102 -148 -196 8 -15 45 -56 83 -92 182 -171 406 -281 628 -308 50 -6 297 -13 550 -16 253 -3 649 -8 880 -11 459 -7 611 0 901 41 187 27 365 69 462 108 191 77 316 205 359 368 16 63 16 66 -3 104 -35 72 -118 104 -194 74z"/>
  </g>
</svg>
